<?xml version="1.0" standalone="no"?>
<!DOCTYPE svg PUBLIC "-//W3C//DTD SVG 20010904//EN"
 "http://www.w3.org/TR/2001/REC-SVG-20010904/DTD/svg10.dtd">
<svg version="1.0" xmlns="http://www.w3.org/2000/svg"
 width="700.000000pt" height="700.000000pt" viewBox="0 0 700.000000 700.000000"
 preserveAspectRatio="xMidYMid meet">
<metadata>
Created by potrace 1.14, written by Peter Selinger 2001-2017
</metadata>
<g transform="translate(0.000000,700.000000) scale(0.100000,-0.100000)"
fill="#000000" stroke="none">
<path d="M3645 6500 c3 -4 22 -16 42 -25 91 -43 359 -219 448 -294 17 -14 51
-42 75 -61 109 -87 307 -285 402 -402 18 -22 38 -45 43 -52 6 -6 21 -25 33
-43 l22 -32 -116 -133 c-65 -73 -138 -156 -163 -184 -25 -28 -68 -77 -96 -109
-27 -32 -61 -70 -75 -86 -32 -35 -112 -126 -140 -158 -11 -14 -46 -53 -77 -88
-64 -71 -56 -73 -123 22 -46 66 -41 60 -112 145 -111 134 -199 217 -383 359
-27 20 -165 97 -224 124 -173 78 -364 131 -561 154 -129 15 -419 8 -521 -12
-13 -3 -37 -8 -54 -11 -199 -35 -438 -134 -632 -260 -48 -32 -90 -61 -93 -64
-3 -3 -20 -16 -38 -29 -182 -127 -418 -412 -555 -672 -67 -126 -156 -358 -182
-475 -48 -214 -63 -363 -59 -579 3 -173 5 -200 19 -290 41 -269 146 -565 281
-795 77 -131 236 -337 324 -418 14 -13 43 -40 65 -61 22 -20 76 -65 120 -99
44 -34 85 -66 92 -72 7 -5 15 -10 19 -10 3 0 18 -8 32 -19 117 -83 330 -175
510 -222 113 -29 135 -33 247 -46 79 -10 302 -10 389 0 148 16 380 78 476 127
22 11 40 17 40 13 0 -5 4 -3 8 2 4 6 30 21 57 35 74 36 259 148 283 170 12 11
24 20 27 20 9 0 145 113 206 171 15 15 17 46 15 315 l-1 299 -567 0 -568 0 -1
25 c0 35 -1 961 0 981 1 16 86 17 1086 17 795 0 1085 -4 1086 -12 6 -68 3
-2037 -4 -2055 -8 -24 -120 -169 -197 -256 -61 -70 -233 -239 -305 -301 -78
-68 -278 -217 -340 -254 -22 -13 -42 -26 -45 -29 -3 -4 -16 -12 -30 -20 -261
-149 -463 -234 -710 -302 -51 -14 -68 -24 -42 -26 9 0 42 -3 72 -7 258 -28
604 -26 780 4 30 5 73 12 95 15 62 9 85 14 293 60 51 12 293 95 375 129 209
86 461 228 641 360 12 8 43 -6 471 -214 105 -51 253 -123 330 -160 77 -37 210
-101 295 -143 85 -41 156 -74 158 -72 2 1 -13 38 -34 81 -20 44 -52 113 -71
154 -20 41 -48 102 -63 135 -15 33 -50 107 -78 165 -27 58 -65 139 -84 180
-83 176 -103 220 -145 310 -104 220 -113 244 -104 249 12 8 131 189 131 200 0
5 3 11 8 13 4 2 15 17 24 33 26 45 154 304 176 355 31 73 101 272 102 292 1 4
8 27 16 50 9 24 17 50 19 58 33 146 47 209 50 230 2 14 6 41 10 60 3 19 8 49
10 65 2 17 4 30 5 30 2 0 6 45 16 190 10 144 10 261 -1 415 -10 153 -11 161
-30 279 -2 13 -8 45 -12 70 -8 53 -7 47 -16 86 -4 17 -9 39 -12 50 -15 67 -36
146 -49 183 -8 23 -13 42 -9 42 3 0 1 6 -4 13 -6 6 -13 25 -17 42 -21 87 -148
372 -237 532 -62 112 -244 378 -293 429 -6 6 -36 40 -66 75 -88 102 -218 230
-346 340 -156 134 -408 297 -614 396 -163 79 -221 103 -355 148 -264 88 -545
143 -813 159 -34 2 -60 0 -57 -4z"/>
</g>
</svg>
